<svg id="Capa_1" enable-background="new 0 0 512 512" height="512" viewBox="0 0 512 512" width="512" xmlns="http://www.w3.org/2000/svg"><g><g id="Top_3_"><g id="ouble_Click_4_"><g><g><path d="m408.944 374.794-151.553-94.614-151.553 94.614 151.554-374.794z" fill="#4da6ff"/></g></g></g><g><g><path d="m481 287c0 123.6-99.901 224.099-223.5 225h-1.5c-124.2 0-225-100.801-225-225 0-87.001 51.301-167.1 130.499-204.001l12.601 27.301c-68.701 31.799-113.1 101.099-113.1 176.7 0 107.699 87.599 195 195 195h1.5c106.8-.901 193.5-87.902 193.5-195 0-74.101-43.2-142.8-110.099-175.201l13.2-27.001c77.1 37.5 126.899 116.701 126.899 202.202z" fill="#54678c"/></g></g></g><path d="m408.944 374.794-151.552-374.794v280.179z" fill="#457be6"/><path d="m481 287c0 123.6-99.901 224.099-223.5 225v-30c106.8-.901 193.5-87.902 193.5-195 0-74.101-43.2-142.8-110.099-175.201l13.2-27.001c77.1 37.5 126.899 116.701 126.899 202.202z" fill="#3d4466"/></g></svg>